<svg width="64" height="64" viewBox="0 0 64 64" fill="none" xmlns="http://www.w3.org/2000/svg">
<g clip-path="url(#clip0_670_6)">
<g filter="url(#filter0_i_670_6)">
<path d="M20.912 57.3843C29.3212 53.5083 30.4852 40.0449 32.2025 32.1894C21.7288 29.8997 14.8164 27.7292 7.11515 30.5197C-2.16556 33.8827 0.902317 46.0033 9.18436 46.9275C6.36799 53.825 13.87 60.6301 20.912 57.3843Z" fill="url(#paint0_radial_670_6)"/>
<path d="M20.912 57.3843C29.3212 53.5083 30.4852 40.0449 32.2025 32.1894C21.7288 29.8997 14.8164 27.7292 7.11515 30.5197C-2.16556 33.8827 0.902317 46.0033 9.18436 46.9275C6.36799 53.825 13.87 60.6301 20.912 57.3843Z" fill="url(#paint1_radial_670_6)"/>
<path d="M20.912 57.3843C29.3212 53.5083 30.4852 40.0449 32.2025 32.1894C21.7288 29.8997 14.8164 27.7292 7.11515 30.5197C-2.16556 33.8827 0.902317 46.0033 9.18436 46.9275C6.36799 53.825 13.87 60.6301 20.912 57.3843Z" fill="url(#paint2_radial_670_6)"/>
</g>
<path d="M20.912 57.3843C29.3212 53.5083 30.4852 40.0449 32.2025 32.1894C21.7288 29.8997 14.8164 27.7292 7.11515 30.5197C-2.16556 33.8827 0.902317 46.0033 9.18436 46.9275C6.36799 53.825 13.87 60.6301 20.912 57.3843Z" fill="url(#paint3_radial_670_6)"/>
<path d="M20.912 57.3843C29.3212 53.5083 30.4852 40.0449 32.2025 32.1894C21.7288 29.8997 14.8164 27.7292 7.11515 30.5197C-2.16556 33.8827 0.902317 46.0033 9.18436 46.9275C6.36799 53.825 13.87 60.6301 20.912 57.3843Z" fill="url(#paint4_radial_670_6)"/>
<g filter="url(#filter1_f_670_6)">
<path d="M15.7222 40.9964L31.5371 32.6031C30.0558 32.5631 25.9869 33.2599 22.5897 35.0688C18.7681 37.1036 16.0343 39.9246 15.7222 40.9964Z" fill="url(#paint5_linear_670_6)"/>
</g>
<g filter="url(#filter2_f_670_6)">
<path d="M30.6208 34.6296L19.7755 41.376L26.4105 48.4825C29.1974 43.1486 30.3787 37.0247 30.6208 34.6296Z" fill="url(#paint6_radial_670_6)"/>
</g>
<path d="M32.0293 59.8148C26.0048 52.7838 30.4579 40.0392 32.1752 32.1837C42.6492 34.4734 49.9434 35.4085 55.7777 41.1581C62.8084 48.0871 54.9627 57.8216 47.0505 55.2056C46.7319 62.6491 37.0747 65.7034 32.0293 59.8148Z" fill="url(#paint7_linear_670_6)"/>
<path d="M32.0293 59.8148C26.0048 52.7838 30.4579 40.0392 32.1752 32.1837C42.6492 34.4734 49.9434 35.4085 55.7777 41.1581C62.8084 48.0871 54.9627 57.8216 47.0505 55.2056C46.7319 62.6491 37.0747 65.7034 32.0293 59.8148Z" fill="url(#paint8_radial_670_6)"/>
<path d="M32.0293 59.8148C26.0048 52.7838 30.4579 40.0392 32.1752 32.1837C42.6492 34.4734 49.9434 35.4085 55.7777 41.1581C62.8084 48.0871 54.9627 57.8216 47.0505 55.2056C46.7319 62.6491 37.0747 65.7034 32.0293 59.8148Z" fill="url(#paint9_radial_670_6)"/>
<path d="M32.0293 59.8148C26.0048 52.7838 30.4579 40.0392 32.1752 32.1837C42.6492 34.4734 49.9434 35.4085 55.7777 41.1581C62.8084 48.0871 54.9627 57.8216 47.0505 55.2056C46.7319 62.6491 37.0747 65.7034 32.0293 59.8148Z" fill="url(#paint10_radial_670_6)"/>
<path d="M32.0293 59.8148C26.0048 52.7838 30.4579 40.0392 32.1752 32.1837C42.6492 34.4734 49.9434 35.4085 55.7777 41.1581C62.8084 48.0871 54.9627 57.8216 47.0505 55.2056C46.7319 62.6491 37.0747 65.7034 32.0293 59.8148Z" fill="url(#paint11_radial_670_6)"/>
<path d="M32.0293 59.8148C26.0048 52.7838 30.4579 40.0392 32.1752 32.1837C42.6492 34.4734 49.9434 35.4085 55.7777 41.1581C62.8084 48.0871 54.9627 57.8216 47.0505 55.2056C46.7319 62.6491 37.0747 65.7034 32.0293 59.8148Z" fill="url(#paint12_radial_670_6)"/>
<path d="M32.0293 59.8148C26.0048 52.7838 30.4579 40.0392 32.1752 32.1837C42.6492 34.4734 49.9434 35.4085 55.7777 41.1581C62.8084 48.0871 54.9627 57.8216 47.0505 55.2056C46.7319 62.6491 37.0747 65.7034 32.0293 59.8148Z" fill="url(#paint13_radial_670_6)"/>
<path d="M32.0293 59.8148C26.0048 52.7838 30.4579 40.0392 32.1752 32.1837C42.6492 34.4734 49.9434 35.4085 55.7777 41.1581C62.8084 48.0871 54.9627 57.8216 47.0505 55.2056C46.7319 62.6491 37.0747 65.7034 32.0293 59.8148Z" fill="url(#paint14_radial_670_6)"/>
<path d="M32.0293 59.8148C26.0048 52.7838 30.4579 40.0392 32.1752 32.1837C42.6492 34.4734 49.9434 35.4085 55.7777 41.1581C62.8084 48.0871 54.9627 57.8216 47.0505 55.2056C46.7319 62.6491 37.0747 65.7034 32.0293 59.8148Z" fill="url(#paint15_radial_670_6)"/>
<path d="M32.1479 32.3082C32.157 32.2667 32.1661 32.2252 32.1752 32.1837C33.4088 32.4534 34.5985 32.7042 35.7467 32.9463C44.3472 34.7603 50.6305 36.0858 55.7776 41.1581C62.7323 48.0118 55.1925 57.7082 47.0636 55.2136L32.1479 32.3082Z" fill="url(#paint16_linear_670_6)"/>
<path d="M32.1479 32.3082C32.157 32.2667 32.1661 32.2252 32.1752 32.1837C33.4088 32.4534 34.5985 32.7042 35.7467 32.9463C44.3472 34.7603 50.6305 36.0858 55.7776 41.1581C62.7323 48.0118 55.1925 57.7082 47.0636 55.2136L32.1479 32.3082Z" fill="url(#paint17_radial_670_6)"/>
<g filter="url(#filter3_f_670_6)">
<path d="M46.6772 52.6825C50.651 54.6163 55.1999 53.4561 56.8374 50.0912C58.4748 46.7262 56.5808 42.4307 52.607 40.4969C48.6331 38.5632 44.0842 39.7234 42.4468 43.0883C40.8093 46.4533 42.7033 50.7488 46.6772 52.6825Z" fill="url(#paint18_radial_670_6)"/>
</g>
<g filter="url(#filter4_f_670_6)">
<path d="M44.8903 52.3939L33.2281 34.6084C34.2969 37.004 35.5698 39.6674 38.2623 44.997C40.7187 49.8595 42.2879 51.5011 44.8903 52.3939Z" fill="url(#paint19_radial_670_6)"/>
</g>
<g filter="url(#filter5_i_670_6)">
<path d="M32.5178 4.9064C37.7832 11.7137 34.0297 24.4422 32.3125 32.2977C21.8387 30.0081 14.6038 29.3131 8.76953 23.5633C1.73868 16.6345 9.58435 6.89975 17.4965 9.51582C17.8153 2.07222 27.7737 -1.22702 32.5178 4.9064Z" fill="url(#paint20_linear_670_6)"/>
<path d="M32.5178 4.9064C37.7832 11.7137 34.0297 24.4422 32.3125 32.2977C21.8387 30.0081 14.6038 29.3131 8.76953 23.5633C1.73868 16.6345 9.58435 6.89975 17.4965 9.51582C17.8153 2.07222 27.7737 -1.22702 32.5178 4.9064Z" fill="url(#paint21_radial_670_6)"/>
<path d="M32.5178 4.9064C37.7832 11.7137 34.0297 24.4422 32.3125 32.2977C21.8387 30.0081 14.6038 29.3131 8.76953 23.5633C1.73868 16.6345 9.58435 6.89975 17.4965 9.51582C17.8153 2.07222 27.7737 -1.22702 32.5178 4.9064Z" fill="url(#paint22_radial_670_6)"/>
<path d="M32.5178 4.9064C37.7832 11.7137 34.0297 24.4422 32.3125 32.2977C21.8387 30.0081 14.6038 29.3131 8.76953 23.5633C1.73868 16.6345 9.58435 6.89975 17.4965 9.51582C17.8153 2.07222 27.7737 -1.22702 32.5178 4.9064Z" fill="url(#paint23_radial_670_6)"/>
<path d="M32.5178 4.9064C37.7832 11.7137 34.0297 24.4422 32.3125 32.2977C21.8387 30.0081 14.6038 29.3131 8.76953 23.5633C1.73868 16.6345 9.58435 6.89975 17.4965 9.51582C17.8153 2.07222 27.7737 -1.22702 32.5178 4.9064Z" fill="url(#paint24_radial_670_6)"/>
<path d="M32.5178 4.9064C37.7832 11.7137 34.0297 24.4422 32.3125 32.2977C21.8387 30.0081 14.6038 29.3131 8.76953 23.5633C1.73868 16.6345 9.58435 6.89975 17.4965 9.51582C17.8153 2.07222 27.7737 -1.22702 32.5178 4.9064Z" fill="url(#paint25_radial_670_6)"/>
</g>
<g filter="url(#filter6_f_670_6)">
<path d="M22.4776 10.4782L31.62 31.2179C32.4742 27.3103 33.9801 20.4217 33.7602 13.7045C33.6218 9.48449 32.0643 3.11898 25.6064 3.31119C20.4401 3.46497 21.6696 9.5418 22.4776 10.4782Z" fill="url(#paint26_radial_670_6)"/>
<path d="M22.4776 10.4782L31.62 31.2179C32.4742 27.3103 33.9801 20.4217 33.7602 13.7045C33.6218 9.48449 32.0643 3.11898 25.6064 3.31119C20.4401 3.46497 21.6696 9.5418 22.4776 10.4782Z" fill="url(#paint27_radial_670_6)"/>
</g>
<g filter="url(#filter7_f_670_6)">
<path d="M20.1087 13L30.6162 30.1971C28.535 28.5181 27.2888 28.1197 24.5 23.5C21.6219 18.7327 19.8328 14.2623 20.1087 13Z" fill="url(#paint28_linear_670_6)"/>
</g>
<g filter="url(#filter8_i_670_6)">
<path d="M43.324 7.26867C35.6984 11.2578 33.7981 24.3915 32.0808 32.247C42.5546 34.5367 49.4194 36.924 57.1208 34.1332C66.4016 30.7703 63.3337 18.6498 55.0516 17.7256C57.8681 10.8281 50.1947 3.67435 43.324 7.26867Z" fill="#48D386"/>
<path d="M43.324 7.26867C35.6984 11.2578 33.7981 24.3915 32.0808 32.247C42.5546 34.5367 49.4194 36.924 57.1208 34.1332C66.4016 30.7703 63.3337 18.6498 55.0516 17.7256C57.8681 10.8281 50.1947 3.67435 43.324 7.26867Z" fill="url(#paint29_radial_670_6)"/>
<path d="M43.324 7.26867C35.6984 11.2578 33.7981 24.3915 32.0808 32.247C42.5546 34.5367 49.4194 36.924 57.1208 34.1332C66.4016 30.7703 63.3337 18.6498 55.0516 17.7256C57.8681 10.8281 50.1947 3.67435 43.324 7.26867Z" fill="url(#paint30_radial_670_6)"/>
<path d="M43.324 7.26867C35.6984 11.2578 33.7981 24.3915 32.0808 32.247C42.5546 34.5367 49.4194 36.924 57.1208 34.1332C66.4016 30.7703 63.3337 18.6498 55.0516 17.7256C57.8681 10.8281 50.1947 3.67435 43.324 7.26867Z" fill="url(#paint31_radial_670_6)"/>
<path d="M43.324 7.26867C35.6984 11.2578 33.7981 24.3915 32.0808 32.247C42.5546 34.5367 49.4194 36.924 57.1208 34.1332C66.4016 30.7703 63.3337 18.6498 55.0516 17.7256C57.8681 10.8281 50.1947 3.67435 43.324 7.26867Z" fill="url(#paint32_radial_670_6)" fill-opacity="0.25"/>
<path d="M43.324 7.26867C35.6984 11.2578 33.7981 24.3915 32.0808 32.247C42.5546 34.5367 49.4194 36.924 57.1208 34.1332C66.4016 30.7703 63.3337 18.6498 55.0516 17.7256C57.8681 10.8281 50.1947 3.67435 43.324 7.26867Z" fill="url(#paint33_radial_670_6)"/>
</g>
<g filter="url(#filter9_f_670_6)">
<path d="M55.3706 27.1996C58.2892 28.1912 61.0804 27.7438 61.6048 26.2003C62.1292 24.6568 60.1884 22.6017 57.2697 21.61C54.3511 20.6184 51.56 21.0658 51.0356 22.6093C50.5111 24.1528 52.452 26.208 55.3706 27.1996Z" fill="url(#paint34_radial_670_6)"/>
</g>
<g filter="url(#filter10_f_670_6)">
<path d="M53.4121 15.119C53.6973 12.0497 52.6127 9.43932 50.9895 9.28847C49.3663 9.13763 47.8193 11.5035 47.534 14.5727C47.2488 17.642 48.3334 20.2524 49.9566 20.4032C51.5798 20.5541 53.1269 18.1882 53.4121 15.119Z" fill="url(#paint35_radial_670_6)"/>
</g>
</g>
<defs>
<filter id="filter0_i_670_6" x="1.42554" y="29.2035" width="30.777" height="29.0149" filterUnits="userSpaceOnUse" color-interpolation-filters="sRGB">
<feFlood flood-opacity="0" result="BackgroundImageFix"/>
<feBlend mode="normal" in="SourceGraphic" in2="BackgroundImageFix" result="shape"/>
<feColorMatrix in="SourceAlpha" type="matrix" values="0 0 0 0 0 0 0 0 0 0 0 0 0 0 0 0 0 0 127 0" result="hardAlpha"/>
<feOffset/>
<feGaussianBlur stdDeviation="1"/>
<feComposite in2="hardAlpha" operator="arithmetic" k2="-1" k3="1"/>
<feColorMatrix type="matrix" values="0 0 0 0 0.0901961 0 0 0 0 0.576471 0 0 0 0 0.313726 0 0 0 1 0"/>
<feBlend mode="normal" in2="shape" result="effect1_innerShadow_670_6"/>
</filter>
<filter id="filter1_f_670_6" x="15.2222" y="32.1015" width="16.8149" height="9.39491" filterUnits="userSpaceOnUse" color-interpolation-filters="sRGB">
<feFlood flood-opacity="0" result="BackgroundImageFix"/>
<feBlend mode="normal" in="SourceGraphic" in2="BackgroundImageFix" result="shape"/>
<feGaussianBlur stdDeviation="0.25" result="effect1_foregroundBlur_670_6"/>
</filter>
<filter id="filter2_f_670_6" x="19.2755" y="34.1296" width="11.8453" height="14.8529" filterUnits="userSpaceOnUse" color-interpolation-filters="sRGB">
<feFlood flood-opacity="0" result="BackgroundImageFix"/>
<feBlend mode="normal" in="SourceGraphic" in2="BackgroundImageFix" result="shape"/>
<feGaussianBlur stdDeviation="0.25" result="effect1_foregroundBlur_670_6"/>
</filter>
<filter id="filter3_f_670_6" x="40.6078" y="38.3113" width="18.0685" height="16.5568" filterUnits="userSpaceOnUse" color-interpolation-filters="sRGB">
<feFlood flood-opacity="0" result="BackgroundImageFix"/>
<feBlend mode="normal" in="SourceGraphic" in2="BackgroundImageFix" result="shape"/>
<feGaussianBlur stdDeviation="0.625" result="effect1_foregroundBlur_670_6"/>
</filter>
<filter id="filter4_f_670_6" x="32.8281" y="34.2084" width="12.4621" height="18.5855" filterUnits="userSpaceOnUse" color-interpolation-filters="sRGB">
<feFlood flood-opacity="0" result="BackgroundImageFix"/>
<feBlend mode="normal" in="SourceGraphic" in2="BackgroundImageFix" result="shape"/>
<feGaussianBlur stdDeviation="0.2" result="effect1_foregroundBlur_670_6"/>
</filter>
<filter id="filter5_i_670_6" x="6.03613" y="1.45291" width="29.4339" height="30.8448" filterUnits="userSpaceOnUse" color-interpolation-filters="sRGB">
<feFlood flood-opacity="0" result="BackgroundImageFix"/>
<feBlend mode="normal" in="SourceGraphic" in2="BackgroundImageFix" result="shape"/>
<feColorMatrix in="SourceAlpha" type="matrix" values="0 0 0 0 0 0 0 0 0 0 0 0 0 0 0 0 0 0 127 0" result="hardAlpha"/>
<feOffset dx="0.25" dy="-0.25"/>
<feGaussianBlur stdDeviation="0.5"/>
<feComposite in2="hardAlpha" operator="arithmetic" k2="-1" k3="1"/>
<feColorMatrix type="matrix" values="0 0 0 0 0.211765 0 0 0 0 0.505882 0 0 0 0 0.407843 0 0 0 1 0"/>
<feBlend mode="normal" in2="shape" result="effect1_innerShadow_670_6"/>
</filter>
<filter id="filter6_f_670_6" x="20.991" y="2.55695" width="13.5408" height="29.4109" filterUnits="userSpaceOnUse" color-interpolation-filters="sRGB">
<feFlood flood-opacity="0" result="BackgroundImageFix"/>
<feBlend mode="normal" in="SourceGraphic" in2="BackgroundImageFix" result="shape"/>
<feGaussianBlur stdDeviation="0.375" result="effect1_foregroundBlur_670_6"/>
</filter>
<filter id="filter7_f_670_6" x="19.5807" y="12.5" width="11.5355" height="18.1971" filterUnits="userSpaceOnUse" color-interpolation-filters="sRGB">
<feFlood flood-opacity="0" result="BackgroundImageFix"/>
<feBlend mode="normal" in="SourceGraphic" in2="BackgroundImageFix" result="shape"/>
<feGaussianBlur stdDeviation="0.25" result="effect1_foregroundBlur_670_6"/>
</filter>
<filter id="filter8_i_670_6" x="32.0809" y="6.05769" width="30.9796" height="29.3369" filterUnits="userSpaceOnUse" color-interpolation-filters="sRGB">
<feFlood flood-opacity="0" result="BackgroundImageFix"/>
<feBlend mode="normal" in="SourceGraphic" in2="BackgroundImageFix" result="shape"/>
<feColorMatrix in="SourceAlpha" type="matrix" values="0 0 0 0 0 0 0 0 0 0 0 0 0 0 0 0 0 0 127 0" result="hardAlpha"/>
<feOffset dx="0.25" dy="-0.25"/>
<feGaussianBlur stdDeviation="0.5"/>
<feComposite in2="hardAlpha" operator="arithmetic" k2="-1" k3="1"/>
<feColorMatrix type="matrix" values="0 0 0 0 0.227451 0 0 0 0 0.596078 0 0 0 0 0.352941 0 0 0 1 0"/>
<feBlend mode="normal" in2="shape" result="effect1_innerShadow_670_6"/>
</filter>
<filter id="filter9_f_670_6" x="49.95" y="20.0826" width="12.7404" height="8.6445" filterUnits="userSpaceOnUse" color-interpolation-filters="sRGB">
<feFlood flood-opacity="0" result="BackgroundImageFix"/>
<feBlend mode="normal" in="SourceGraphic" in2="BackgroundImageFix" result="shape"/>
<feGaussianBlur stdDeviation="0.5" result="effect1_foregroundBlur_670_6"/>
</filter>
<filter id="filter10_f_670_6" x="46.4885" y="8.28165" width="7.96912" height="13.1284" filterUnits="userSpaceOnUse" color-interpolation-filters="sRGB">
<feFlood flood-opacity="0" result="BackgroundImageFix"/>
<feBlend mode="normal" in="SourceGraphic" in2="BackgroundImageFix" result="shape"/>
<feGaussianBlur stdDeviation="0.5" result="effect1_foregroundBlur_670_6"/>
</filter>
<radialGradient id="paint0_radial_670_6" cx="0" cy="0" r="1" gradientUnits="userSpaceOnUse" gradientTransform="translate(21.5253 40.3233) rotate(-35.2544) scale(18.0965 17.7027)">
<stop stop-color="#53CE8D"/>
<stop offset="1" stop-color="#39B97C"/>
</radialGradient>
<radialGradient id="paint1_radial_670_6" cx="0" cy="0" r="1" gradientUnits="userSpaceOnUse" gradientTransform="translate(22.0989 38.0849) rotate(-31.1204) scale(12.9509 1.86387)">
<stop stop-color="#1FAE5A"/>
<stop offset="1" stop-color="#1FAE5A" stop-opacity="0"/>
</radialGradient>
<radialGradient id="paint2_radial_670_6" cx="0" cy="0" r="1" gradientUnits="userSpaceOnUse" gradientTransform="translate(32.3837 32.1947) rotate(148.302) scale(19.5084 0.23084)">
<stop offset="0.365703" stop-color="#6AD392"/>
<stop offset="1" stop-color="#6AD392" stop-opacity="0"/>
</radialGradient>
<radialGradient id="paint3_radial_670_6" cx="0" cy="0" r="1" gradientUnits="userSpaceOnUse" gradientTransform="translate(5.73072 47.0218) rotate(-55.439) scale(2.56144 3.21814)">
<stop offset="0.209976" stop-color="#718C9F"/>
<stop offset="1" stop-color="#718C9F" stop-opacity="0"/>
</radialGradient>
<radialGradient id="paint4_radial_670_6" cx="0" cy="0" r="1" gradientUnits="userSpaceOnUse" gradientTransform="translate(11.8578 57.7952) rotate(-57.6846) scale(4.65106 17.4107)">
<stop stop-color="#718C9F"/>
<stop offset="1" stop-color="#718C9F" stop-opacity="0"/>
</radialGradient>
<linearGradient id="paint5_linear_670_6" x1="29.4403" y1="34.6248" x2="12.5246" y2="39.7908" gradientUnits="userSpaceOnUse">
<stop stop-color="#75E2A0"/>
<stop offset="1" stop-color="#72D79A" stop-opacity="0"/>
</linearGradient>
<radialGradient id="paint6_radial_670_6" cx="0" cy="0" r="1" gradientUnits="userSpaceOnUse" gradientTransform="translate(29.3995 33.265) rotate(105.495) scale(16.4369 4.31503)">
<stop stop-color="#6EE79D"/>
<stop offset="1" stop-color="#72D79A" stop-opacity="0"/>
</radialGradient>
<linearGradient id="paint7_linear_670_6" x1="30.5742" y1="32.8467" x2="44.5954" y2="52.1204" gradientUnits="userSpaceOnUse">
<stop stop-color="#2C9C60"/>
<stop offset="1" stop-color="#3CCE7F"/>
</linearGradient>
<radialGradient id="paint8_radial_670_6" cx="0" cy="0" r="1" gradientUnits="userSpaceOnUse" gradientTransform="translate(58.9967 51.8919) rotate(-148.853) scale(23.5246 11.2198)">
<stop stop-color="#46D282"/>
<stop offset="1" stop-color="#46D282" stop-opacity="0"/>
</radialGradient>
<radialGradient id="paint9_radial_670_6" cx="0" cy="0" r="1" gradientUnits="userSpaceOnUse" gradientTransform="translate(49.6776 62.8552) rotate(-126.876) scale(12.1184 13.6767)">
<stop stop-color="#43D592"/>
<stop offset="1" stop-color="#43D592" stop-opacity="0"/>
</radialGradient>
<radialGradient id="paint10_radial_670_6" cx="0" cy="0" r="1" gradientUnits="userSpaceOnUse" gradientTransform="translate(48.5439 58.3864) rotate(-169.594) scale(9.81968 18.4993)">
<stop stop-color="#45DF94"/>
<stop offset="1" stop-color="#45DF94" stop-opacity="0"/>
</radialGradient>
<radialGradient id="paint11_radial_670_6" cx="0" cy="0" r="1" gradientUnits="userSpaceOnUse" gradientTransform="translate(32.7042 33.1435) rotate(56.9581) scale(19.3237 2.13898)">
<stop stop-color="#249F5C"/>
<stop offset="1" stop-color="#249F5C" stop-opacity="0"/>
</radialGradient>
<radialGradient id="paint12_radial_670_6" cx="0" cy="0" r="1" gradientUnits="userSpaceOnUse" gradientTransform="translate(47.5537 33.1818) rotate(111.872) scale(4.59957 21.5764)">
<stop stop-color="#439059"/>
<stop offset="1" stop-color="#439059" stop-opacity="0"/>
</radialGradient>
<radialGradient id="paint13_radial_670_6" cx="0" cy="0" r="1" gradientUnits="userSpaceOnUse" gradientTransform="translate(47.6402 58.2731) rotate(-166.76) scale(5.19638 6.19245)">
<stop stop-color="#4DD695"/>
<stop offset="1" stop-color="#4DD695" stop-opacity="0"/>
</radialGradient>
<radialGradient id="paint14_radial_670_6" cx="0" cy="0" r="1" gradientUnits="userSpaceOnUse" gradientTransform="translate(48.477 46.7219) rotate(-167.245) scale(22.268 50.4682)">
<stop offset="0.623915" stop-color="#1D9453" stop-opacity="0"/>
<stop offset="1" stop-color="#1D9453"/>
</radialGradient>
<radialGradient id="paint15_radial_670_6" cx="0" cy="0" r="1" gradientUnits="userSpaceOnUse" gradientTransform="translate(44.6248 43.0095) rotate(115.338) scale(23.3616 18.1731)">
<stop offset="0.841223" stop-color="#438882" stop-opacity="0"/>
<stop offset="0.968696" stop-color="#438882"/>
</radialGradient>
<linearGradient id="paint16_linear_670_6" x1="28.5604" y1="41.2858" x2="38.941" y2="36.2796" gradientUnits="userSpaceOnUse">
<stop stop-color="#219756"/>
<stop offset="1" stop-color="#219756" stop-opacity="0"/>
</linearGradient>
<radialGradient id="paint17_radial_670_6" cx="0" cy="0" r="1" gradientUnits="userSpaceOnUse" gradientTransform="translate(48.5995 40.7548) rotate(100.596) scale(16.3369 38.8889)">
<stop offset="0.821483" stop-color="#438882" stop-opacity="0"/>
<stop offset="1" stop-color="#438882"/>
</radialGradient>
<radialGradient id="paint18_radial_670_6" cx="0" cy="0" r="1" gradientUnits="userSpaceOnUse" gradientTransform="translate(58.5256 47.4832) rotate(-166.436) scale(14.3787 7.44666)">
<stop stop-color="#81FFB3"/>
<stop offset="1" stop-color="#81FFB3" stop-opacity="0"/>
</radialGradient>
<radialGradient id="paint19_radial_670_6" cx="0" cy="0" r="1" gradientUnits="userSpaceOnUse" gradientTransform="translate(40.2023 45.6861) rotate(148.5) scale(1.99388 12.6174)">
<stop stop-color="#72DDA1"/>
<stop offset="1" stop-color="#72DDA1" stop-opacity="0"/>
</radialGradient>
<linearGradient id="paint20_linear_670_6" x1="22.8768" y1="7.69513" x2="31.9887" y2="33.9999" gradientUnits="userSpaceOnUse">
<stop stop-color="#3AC97D"/>
<stop offset="1" stop-color="#3FAD80"/>
</linearGradient>
<radialGradient id="paint21_radial_670_6" cx="0" cy="0" r="1" gradientUnits="userSpaceOnUse" gradientTransform="translate(16.3315 4.99798) rotate(57.3314) scale(14.3458 19.3952)">
<stop stop-color="#3BC577"/>
<stop offset="1" stop-color="#3BC577" stop-opacity="0"/>
</radialGradient>
<radialGradient id="paint22_radial_670_6" cx="0" cy="0" r="1" gradientUnits="userSpaceOnUse" gradientTransform="translate(35.1895 7.93866) rotate(157.436) scale(11.9655 11.6495)">
<stop stop-color="#5AF095"/>
<stop offset="1" stop-color="#5AF095" stop-opacity="0"/>
</radialGradient>
<radialGradient id="paint23_radial_670_6" cx="0" cy="0" r="1" gradientUnits="userSpaceOnUse" gradientTransform="translate(32.3437 32.3759) rotate(-122.251) scale(26.1508 1.35941)">
<stop offset="0.433049" stop-color="#3AA578"/>
<stop offset="1" stop-color="#3AA578" stop-opacity="0"/>
</radialGradient>
<radialGradient id="paint24_radial_670_6" cx="0" cy="0" r="1" gradientUnits="userSpaceOnUse" gradientTransform="translate(32.6009 32.9097) rotate(-121.678) scale(25.2839 0.135643)">
<stop offset="0.545457" stop-color="#4EB87F"/>
<stop offset="1" stop-color="#4EB87F" stop-opacity="0"/>
</radialGradient>
<radialGradient id="paint25_radial_670_6" cx="0" cy="0" r="1" gradientUnits="userSpaceOnUse" gradientTransform="translate(14.5725 28.4909) rotate(16.7085) scale(16.3772 8.39401)">
<stop stop-color="#379876"/>
<stop offset="1" stop-color="#379876" stop-opacity="0"/>
</radialGradient>
<radialGradient id="paint26_radial_670_6" cx="0" cy="0" r="1" gradientUnits="userSpaceOnUse" gradientTransform="translate(32.9714 18.0847) rotate(164.635) scale(5.86806 26.3498)">
<stop stop-color="#77E8A3"/>
<stop offset="1" stop-color="#77E8A3" stop-opacity="0"/>
</radialGradient>
<radialGradient id="paint27_radial_670_6" cx="0" cy="0" r="1" gradientUnits="userSpaceOnUse" gradientTransform="translate(48.5706 23.1892) rotate(-161.909) scale(28.763 14.0262)">
<stop stop-color="#77E8A3"/>
<stop offset="0.998669" stop-color="#77E8A3" stop-opacity="0"/>
</radialGradient>
<linearGradient id="paint28_linear_670_6" x1="24.5766" y1="23.2629" x2="26.6113" y2="21.8716" gradientUnits="userSpaceOnUse">
<stop stop-color="#75D79F"/>
<stop offset="1" stop-color="#75D79F" stop-opacity="0"/>
</linearGradient>
<radialGradient id="paint29_radial_670_6" cx="0" cy="0" r="1" gradientUnits="userSpaceOnUse" gradientTransform="translate(53.2796 19.2378) rotate(147.331) scale(27.9918 26.5256)">
<stop offset="0.279167" stop-color="#188A50" stop-opacity="0"/>
<stop offset="1" stop-color="#188A50"/>
</radialGradient>
<radialGradient id="paint30_radial_670_6" cx="0" cy="0" r="1" gradientUnits="userSpaceOnUse" gradientTransform="translate(58.9539 14.9066) rotate(146.019) scale(15.2829 16.0751)">
<stop offset="0.163658" stop-color="#75F9A8"/>
<stop offset="1" stop-color="#75F9A8" stop-opacity="0"/>
</radialGradient>
<radialGradient id="paint31_radial_670_6" cx="0" cy="0" r="1" gradientUnits="userSpaceOnUse" gradientTransform="translate(26.2166 36.4524) rotate(-32.6686) scale(23.3265 15.9787)">
<stop stop-color="#338B6E"/>
<stop offset="1" stop-color="#338B6E" stop-opacity="0"/>
</radialGradient>
<radialGradient id="paint32_radial_670_6" cx="0" cy="0" r="1" gradientUnits="userSpaceOnUse" gradientTransform="translate(44.8426 24.4001) rotate(149.003) scale(15.9855 2.35524)">
<stop stop-color="#309B69"/>
<stop offset="1" stop-color="#34BB72" stop-opacity="0"/>
</radialGradient>
<radialGradient id="paint33_radial_670_6" cx="0" cy="0" r="1" gradientUnits="userSpaceOnUse" gradientTransform="translate(56.4848 16.5194) rotate(149.026) scale(19.7195 0.446224)">
<stop stop-color="#79F0AF"/>
<stop offset="1" stop-color="#79F0AF" stop-opacity="0"/>
</radialGradient>
<radialGradient id="paint34_radial_670_6" cx="0" cy="0" r="1" gradientUnits="userSpaceOnUse" gradientTransform="translate(60.1093 25.2332) rotate(-162.228) scale(8.11881 2.84217)">
<stop stop-color="#80FFB4"/>
<stop offset="1" stop-color="#80FFB4" stop-opacity="0"/>
</radialGradient>
<radialGradient id="paint35_radial_670_6" cx="0" cy="0" r="1" gradientUnits="userSpaceOnUse" gradientTransform="translate(52.3478 19.0374) rotate(-94.7468) scale(11.0918 3.88295)">
<stop stop-color="#80FFB4"/>
<stop offset="1" stop-color="#80FFB4" stop-opacity="0"/>
</radialGradient>
<clipPath id="clip0_670_6">
<rect width="64" height="64" fill="white"/>
</clipPath>
</defs>
</svg>
